<svg xmlns="http://www.w3.org/2000/svg" width="88.294" height="101.954" viewBox="0 0 88.294 101.954">
  <path id="Exclusion_1" data-name="Exclusion 1" d="M44.147,101.954h0L0,76.465V25.488L44.147,0,88.295,25.488V76.465L44.147,101.954Zm3.725-44.086V72.509H61.066A4.62,4.62,0,0,0,65.68,67.9V34.058a4.62,4.62,0,0,0-4.614-4.614H27.229a4.62,4.62,0,0,0-4.614,4.614V67.9a4.62,4.62,0,0,0,4.614,4.614H40.422V57.868H34.366V50.977h6.056V45.725a9.468,9.468,0,0,1,2.459-6.878,8.995,8.995,0,0,1,6.545-2.4,37.03,37.03,0,0,1,5.338.465v5.863H51.758c-3.381,0-3.886,2.333-3.886,3.723v4.475h6.612l-1.057,6.891Z" fill="#ffd400"/>
</svg>
