<svg id="Component_2_1" data-name="Component 2 – 1" xmlns="http://www.w3.org/2000/svg" width="88.294" height="101.954" viewBox="0 0 88.294 101.954">
  <path id="Subtraction_5" data-name="Subtraction 5" d="M44.147,101.954h0L0,76.465V25.488L44.147,0,88.295,25.488V76.465L44.147,101.954ZM43.876,30.5A20.238,20.238,0,0,0,23.151,51.163,21.225,21.225,0,0,0,37.5,71.414a2.1,2.1,0,0,0,.364.035,1.013,1.013,0,0,0,1.1-1.059c0-.184,0-.667-.007-1.278-.008-1.17-.018-2.767-.018-3.92l-.012,0a11.969,11.969,0,0,1-2.164.2c-1.871,0-4.256-.473-5-2.727-.01-.025-.98-2.471-2.353-3.1-.009-.006-.929-.644-.812-1.022.058-.187.358-.282.891-.282h.057a4.5,4.5,0,0,1,3.268,2.184,4.125,4.125,0,0,0,3.729,2.337,6.057,6.057,0,0,0,2.443-.568,4.757,4.757,0,0,1,1.354-2.853h-.011c-2.081-.232-4.67-.521-6.518-1.821-2-1.409-2.979-3.874-2.979-7.535a6.427,6.427,0,0,1,2-4.987,7.988,7.988,0,0,1,.22-5.748,1.754,1.754,0,0,1,.519-.071c1.919,0,5.289,2.333,5.322,2.357a19.991,19.991,0,0,1,10.633,0c.141-.1,3.44-2.359,5.316-2.359a1.752,1.752,0,0,1,.525.073,7.986,7.986,0,0,1,.221,5.748,6.607,6.607,0,0,1,2.184,4.987c0,3.662-1.009,6.129-3.085,7.541-1.877,1.278-4.4,1.563-6.634,1.814A4.917,4.917,0,0,1,49.5,63.3c0,1.91-.011,4.123-.019,5.587V68.9c0,.723-.006,1.246-.006,1.473a1.025,1.025,0,0,0,1.1,1.06,2.041,2.041,0,0,0,.361-.034A21.1,21.1,0,0,0,65.144,51.163C65.144,39.579,55.8,30.5,43.876,30.5ZM36.783,63.165c-.02,0-.04,0-.061,0-.247,0-.44.134-.44.305s.168.307.409.307l.066,0c.247,0,.44-.134.44-.3a.273.273,0,0,0-.121-.221A.5.5,0,0,0,36.783,63.165Zm1.593-.221a.687.687,0,0,0-.07,0c-.257.062-.414.229-.39.415a.333.333,0,0,0,.363.237.619.619,0,0,0,.137-.016c.25-.061.414-.224.39-.39C38.782,63.051,38.6,62.944,38.376,62.944Zm-3.432-.066a.384.384,0,0,0-.381.213.231.231,0,0,0,.024.2.759.759,0,0,0,.52.253.343.343,0,0,0,.345-.2.248.248,0,0,0-.025-.192.567.567,0,0,0-.339-.248A.553.553,0,0,0,34.944,62.878Zm-1.538-.93a.248.248,0,0,0-.2.085.217.217,0,0,0-.076.175.481.481,0,0,0,.187.351.524.524,0,0,0,.355.169.245.245,0,0,0,.194-.085.228.228,0,0,0,.058-.169.528.528,0,0,0-.168-.357A.506.506,0,0,0,33.406,61.949ZM32.385,60.74a.221.221,0,0,0-.142.049.215.215,0,0,0-.1.144.483.483,0,0,0,.1.355.5.5,0,0,0,.367.227.17.17,0,0,0,.107-.032.387.387,0,0,0,0-.525A.419.419,0,0,0,32.385,60.74Zm-.86-1.092a.2.2,0,0,0-.146.057.179.179,0,0,0-.067.13.436.436,0,0,0,.126.311.448.448,0,0,0,.3.142.2.2,0,0,0,.146-.058.179.179,0,0,0,.067-.13.436.436,0,0,0-.126-.311A.446.446,0,0,0,31.525,59.648Zm-.859-.714a.233.233,0,0,0-.2.085.16.16,0,0,0-.01.127.385.385,0,0,0,.2.2.322.322,0,0,0,.168.049.208.208,0,0,0,.2-.109.158.158,0,0,0,.011-.126.384.384,0,0,0-.205-.2A.567.567,0,0,0,30.666,58.934Z" fill="#ffd400"/>
</svg>
