<svg xmlns="http://www.w3.org/2000/svg" width="88.294" height="101.954" viewBox="0 0 88.294 101.954">
  <path id="Exclusion_2" data-name="Exclusion 2" d="M44.147,101.954h0L0,76.465V25.488L44.147,0,88.295,25.488V76.465L44.147,101.954Zm0-72.51c-3.836,0-7.242.058-8.887.151-4.026.192-6.81,1.262-9.027,3.47s-3.277,4.98-3.479,9.027c-.2,3.571-.2,14.2,0,17.774.19,4.035,1.264,6.819,3.479,9.027s5,3.278,9.027,3.479c1.645.093,5.051.151,8.887.151s7.242-.058,8.887-.151c4.035-.19,6.819-1.264,9.027-3.479s3.277-4.989,3.479-9.027c.2-3.569.2-14.195,0-17.764-.19-4.036-1.264-6.82-3.479-9.027s-4.989-3.277-9.027-3.48C51.389,29.5,47.984,29.444,44.147,29.444Zm3.811,39.225c-.806,0-1.584-.008-2.269-.015-.563-.006-1.091-.011-1.537-.011s-.955,0-1.5.01c-.673.006-1.434.014-2.224.014-2.885,0-6.953-.092-8.973-.889a7.278,7.278,0,0,1-4.095-4.095c-.965-2.432-.911-7.686-.876-11.162.006-.562.011-1.091.011-1.537s0-.954-.01-1.5c-.034-3.492-.084-8.766.875-11.2a7.278,7.278,0,0,1,4.095-4.1c2.013-.8,6.035-.891,8.885-.891.809,0,1.588.008,2.276.015.563.006,1.092.011,1.538.011s.954,0,1.5-.01c.674-.006,1.434-.014,2.224-.014,2.884,0,6.953.092,8.972.889a7.277,7.277,0,0,1,4.1,4.1c.964,2.433.911,7.688.876,11.165-.006.563-.011,1.089-.011,1.534s.005.975.011,1.534c.035,3.48.088,8.74-.876,11.165a7.281,7.281,0,0,1-4.1,4.095C54.836,68.576,50.811,68.669,47.958,68.669Zm-3.806-28.73A11.045,11.045,0,1,0,55.2,50.984,11.058,11.058,0,0,0,44.152,39.938Zm11.5-3.028a2.576,2.576,0,1,0,2.577,2.576A2.579,2.579,0,0,0,55.649,36.911Zm-11.5,21.254a7.181,7.181,0,1,1,7.18-7.181A7.189,7.189,0,0,1,44.152,58.165Z" fill="#ffd400"/>
</svg>
