<svg xmlns="http://www.w3.org/2000/svg" width="88.294" height="101.954" viewBox="0 0 88.294 101.954">
  <path id="Subtraction_1" data-name="Subtraction 1" d="M44.147,101.954h0L0,76.465V25.488L44.147,0,88.295,25.488V76.465L44.147,101.954ZM25.681,29.444a3.089,3.089,0,0,0-3.066,3.105V69.4a3.089,3.089,0,0,0,3.066,3.1H62.6a3.094,3.094,0,0,0,3.076-3.1V32.549A3.094,3.094,0,0,0,62.6,29.444ZM46.021,66.359H39.639V45.8h6.124v2.807h.086a6.1,6.1,0,0,1,2.18-2.264A7.344,7.344,0,0,1,51.895,45.3c3.011,0,5.056.923,6.253,2.822.974,1.544,1.408,3.7,1.408,6.974V66.357H53.174v-10a10.475,10.475,0,0,0-.432-3.619,2.786,2.786,0,0,0-2.884-1.831c-3.38,0-3.836,2.668-3.836,5.278V66.358Zm-10.382,0H29.247V45.8H35.64V66.357ZM32.439,43a3.7,3.7,0,1,1,3.7-3.7A3.705,3.705,0,0,1,32.439,43Z" fill="#ffd400"/>
</svg>
