<svg xmlns="http://www.w3.org/2000/svg" width="539.754" height="596.052" viewBox="0 0 539.754 596.052">
  <g id="Component_1_1" data-name="Component 1 – 1" transform="translate(0 0)">
    <path id="Path_2" data-name="Path 2" d="M403.26,0H192.792a87.566,87.566,0,0,0-75.829,43.787L11.731,226.092a87.581,87.581,0,0,0,0,87.573l105.232,182.3a87.558,87.558,0,0,0,75.829,43.786H403.26a87.558,87.558,0,0,0,75.829-43.786l105.232-182.3a87.581,87.581,0,0,0,0-87.573L479.088,43.787A87.566,87.566,0,0,0,403.26,0Z" transform="translate(0 596.052) rotate(-90)" fill="#ffd400"/>
  </g>
</svg>
