<svg xmlns="http://www.w3.org/2000/svg" width="88.294" height="101.954" viewBox="0 0 88.294 101.954">
  <path id="Exclusion_3" data-name="Exclusion 3" d="M44.147,101.954h0L0,76.465V25.488L44.147,0,88.295,25.488V76.465L44.147,101.954ZM30.611,31A6.646,6.646,0,0,0,24,37.611V64.053a6.646,6.646,0,0,0,6.611,6.611H57.054a6.646,6.646,0,0,0,6.611-6.611V37.611A6.646,6.646,0,0,0,57.054,31ZM42.74,62.771c-.786,0-1.686,0-2.729-.005h-.023c-1.483,0-3.16-.009-5.209-.009V39.62H46.022c2.411,0,4.229.6,5.4,1.779a5.306,5.306,0,0,1,1.467,3.911v.045a5.058,5.058,0,0,1-3.306,4.926v.065c3.778.807,4.343,4.083,4.343,5.963a5.672,5.672,0,0,1-1.861,4.456,7.531,7.531,0,0,1-2.805,1.486C47.827,62.7,46.912,62.771,42.74,62.771ZM38.829,52.22v7.232h7.229a4.62,4.62,0,0,0,2.138-.488,3.3,3.3,0,0,0,1.683-3.18c0-1.331-.505-3.564-3.888-3.564Zm0-9.3v6.39h6.645a4.194,4.194,0,0,0,1.819-.432,2.878,2.878,0,0,0,1.55-2.783c0-1.478-.387-3.175-3.4-3.175Z" fill="#ffd400"/>
</svg>
