<svg xmlns="http://www.w3.org/2000/svg" width="88.295" height="101.954" viewBox="0 0 88.295 101.954">
  <path id="Subtraction_3" data-name="Subtraction 3" d="M44.147,101.954h0L0,76.465V25.488L44.147,0,88.295,25.488V76.465L44.147,101.954ZM27,30h0l3.168,35.932L44.43,70.671l14.261-4.739L61.861,30H27ZM44.539,61.955h0L35.57,59.3,34.988,52.6h4.44l.291,3.477,4.775,1.208,4.965-1.4L49.8,50.29l-15.1-.046v-.009l-.018.009-.328-4.2L44.53,41.8l.59-.245H33.963l-.527-4.294H55.424l-.436,4.294L44.521,46.032l-.027.009H54.616L53.454,59.35l-8.914,2.605Z" fill="#ffd400"/>
</svg>
