<svg xmlns="http://www.w3.org/2000/svg" width="88.294" height="101.954" viewBox="0 0 88.294 101.954">
  <path id="Path_15" data-name="Path 15" d="M76.465,0H25.488L0,44.147,25.488,88.294H76.465l25.488-44.147Z" transform="translate(0 101.954) rotate(-90)" fill="#ffd400"/>
  <path id="Path_10" data-name="Path 10" d="M-6.489,2.813h-8.3V24.861c0,5.456-1.871,6.979-5.127,6.979a12.4,12.4,0,0,1-3.969-.629l-.865,6.454a19.681,19.681,0,0,0,5.7.84c7.476,0,12.564-3.514,12.564-13.59V2.813Z" transform="translate(24.75 -1.982)" fill="#ffd400"/>
  <path id="Path_11" data-name="Path 11" d="M4.121,2.25C-3.914,2.25-9,6.815-9,12.849-9,18.046-5.083,21.3.612,23.4,4.731,24.867,6.36,26.179,6.36,28.33c0,2.361-1.882,3.883-5.442,3.883a18,18,0,0,1-8.341-2.205v0L-9,36.565A20.576,20.576,0,0,0,.459,38.771c9.409,0,13.782-5.038,13.782-10.967,0-5.037-2.8-8.29-8.848-10.6C.917,15.42-.964,14.423-.964,12.167c0-1.785,1.628-3.41,4.985-3.41a14.355,14.355,0,0,1,6.9,1.794l1.984-6.64A21.374,21.374,0,0,0,4.121,2.25Z" transform="translate(32.242 -2.25)" fill="#ffd400"/>
</svg>
