<svg id="Group_18" data-name="Group 18" xmlns="http://www.w3.org/2000/svg" width="88.295" height="101.954" viewBox="0 0 88.295 101.954">
  <path id="Union_6" data-name="Union 6" d="M0,76.465V25.488L44.147,0,88.295,25.488V76.465L44.147,101.954Z" fill="#ffd400"/>
  <g id="Group_17" data-name="Group 17" transform="translate(15 22)">
    <path id="Path_23" data-name="Path 23" d="M185.469,405.869h-4.5c-.752-.142-1.522-.1-2.278-.221a29.116,29.116,0,0,1-24.03-24.469c-.095-.626-.036-1.264-.157-1.888v-4.617a27.918,27.918,0,0,1,.614-4.266A29.233,29.233,0,0,1,168.99,351.88a26.853,26.853,0,0,1,11.323-3.639,28.555,28.555,0,0,1,21.918,6.874,28.981,28.981,0,0,1,8.646,12.942,27.626,27.626,0,0,1,1.359,8.458,28.575,28.575,0,0,1-1.525,10.008,29.33,29.33,0,0,1-15.437,16.907,27.194,27.194,0,0,1-7.915,2.3C186.734,405.813,186.1,405.767,185.469,405.869Z" transform="translate(-154.5 -348.114)" fill="#403580"/>
    <path id="Path_26" data-name="Path 26" d="M202.474,371.252A25.451,25.451,0,1,1,177,396.667,25.491,25.491,0,0,1,202.474,371.252Z" transform="translate(-173.624 -367.778)" fill="#ffd400"/>
    <path id="Path_27" data-name="Path 27" d="M290.395,471.814v-29.48c1.4.964,2.754,1.893,4.107,2.821q8.5,5.829,17.016,11.649c.4.271.361.367-.007.619q-10.392,7.1-20.769,14.226C290.641,471.718,290.556,471.83,290.395,471.814Z" transform="translate(-269.99 -428.186)" fill="#403580"/>
  </g>
</svg>
