<svg id="Group_14" data-name="Group 14" xmlns="http://www.w3.org/2000/svg" width="88.294" height="101.954" viewBox="0 0 88.294 101.954">
  <path id="Union_3" data-name="Union 3" d="M0,76.465V25.488L44.147,0,88.295,25.488V76.465L44.147,101.954Z" fill="#ffd400"/>
  <path id="Union_4" data-name="Union 4" d="M0,76.465V25.488L44.147,0,88.295,25.488V76.465L44.147,101.954Z" fill="#ffd400"/>
  <path id="Icon_awesome-react" data-name="Icon awesome-react" d="M8.023,14.67q.693-.231,1.386-.436c-.077-.316-.145-.633-.214-.949-1.052-5.1-.359-9.2,1.976-10.547,2.25-1.292,5.919.051,9.631,3.285.368.316.727.65,1.069.984.231-.222.47-.445.71-.659,3.892-3.456,7.792-4.91,10.127-3.55,2.241,1.3,2.908,5.158,1.967,9.982-.094.479-.2.949-.316,1.428.547.154,1.086.325,1.591.5,4.568,1.582,7.844,4.08,7.844,6.663,0,2.669-3.49,5.346-8.237,6.971-.385.128-.77.257-1.163.368.128.513.239,1.018.342,1.54.9,4.747.2,8.511-2.044,9.8-2.309,1.334-6.193-.034-9.974-3.344-.3-.265-.6-.539-.9-.83-.376.368-.77.719-1.163,1.061-3.661,3.148-7.279,4.422-9.512,3.131-2.309-1.334-3.062-5.38-2.087-10.307q.115-.565.257-1.155c-.274-.077-.539-.163-.8-.248C3.575,26.73,0,24.087,0,21.376c0-2.592,3.37-5.107,8.023-6.706ZM19.6,7.408c-3.182-2.771-6.15-3.858-7.5-3.079-1.446.83-2,4.183-1.095,8.588.06.291.12.573.2.855a43.788,43.788,0,0,1,5.757-.907A43.217,43.217,0,0,1,20.6,8.323c-.334-.316-.659-.616-1-.915Zm9.9,18.407c-.436.744-.881,1.488-1.351,2.215a38.732,38.732,0,0,0,3.969-.642,39.956,39.956,0,0,0-1.394-3.806c-.393.753-.8,1.5-1.223,2.232Zm2.592-10.29c-1.232-.274-2.54-.5-3.9-.667.453.71.9,1.437,1.317,2.173s.83,1.471,1.215,2.224c.539-1.274.992-2.523,1.369-3.729Zm-2.344,5.893c-.565-1.18-1.18-2.335-1.83-3.473s-1.351-2.241-2.087-3.327c-1.283-.094-2.592-.145-3.926-.145s-2.652.051-3.926.145q-1.091,1.617-2.079,3.31t-1.856,3.456q.86,1.771,1.848,3.49c.65,1.138,1.343,2.241,2.07,3.336,1.274.094,2.6.137,3.943.137s2.643-.043,3.9-.12q1.116-1.629,2.1-3.336C28.561,23.754,29.168,22.6,29.741,21.418ZM14.293,25.8c-.436-.753-.847-1.514-1.249-2.284A39.708,39.708,0,0,0,11.6,27.3a37.57,37.57,0,0,0,4.02.684C15.157,27.269,14.721,26.534,14.293,25.8Zm-1.232-6.544c.4-.753.813-1.505,1.24-2.241s.855-1.446,1.309-2.156a39.362,39.362,0,0,0-3.926.684,37.855,37.855,0,0,0,1.377,3.712ZM21.88,9.632a37.561,37.561,0,0,0-2.532,3.062c1.694-.077,3.4-.077,5.089,0C23.6,11.59,22.736,10.564,21.88,9.632ZM31.8,4.388c-1.437-.838-4.628.359-7.989,3.336-.214.188-.428.393-.65.6a43.456,43.456,0,0,1,3.67,4.542,45.089,45.089,0,0,1,5.748.89c.111-.436.205-.881.3-1.326C33.684,8.289,33.154,5.167,31.8,4.388Zm2.1,22.547c.359-.1.71-.214,1.061-.334a17.445,17.445,0,0,0,5.389-2.669,3.838,3.838,0,0,0,1.608-2.558c0-1.565-2.7-3.567-6.6-4.927-.488-.171-.984-.325-1.48-.47a45.484,45.484,0,0,1-2.1,5.44A46.754,46.754,0,0,1,33.9,26.936Zm-9.974,8.383a15.656,15.656,0,0,0,4.824,3.019,3.786,3.786,0,0,0,3.019.111c1.36-.787,1.925-3.806,1.155-7.869-.094-.479-.2-.958-.316-1.428a42.791,42.791,0,0,1-5.808.838,45.138,45.138,0,0,1-3.7,4.568C23.377,34.822,23.651,35.079,23.924,35.318Zm-2.1-2.079c.872-.941,1.745-1.984,2.592-3.1-.821.034-1.668.051-2.523.051-.881,0-1.745-.017-2.6-.06a36.887,36.887,0,0,0,2.532,3.114Zm-11.18,2.566a3.8,3.8,0,0,0,1.411,2.677c1.36.787,4.26-.239,7.39-2.925.359-.308.719-.642,1.086-.984a42.313,42.313,0,0,1-3.61-4.585,42.166,42.166,0,0,1-5.834-.9c-.086.351-.163.7-.231,1.044a15.593,15.593,0,0,0-.214,5.671Zm-1.557-9.2c.24.077.479.154.727.222A43.452,43.452,0,0,1,12,21.376,43.235,43.235,0,0,1,9.905,16c-.445.128-.872.265-1.283.4-3.986,1.369-6.783,3.4-6.783,4.961,0,1.677,2.985,3.841,7.253,5.252Zm12.8-1.283a3.918,3.918,0,1,1,3.918-3.918A3.917,3.917,0,0,1,21.9,25.327Z" transform="translate(22 29.749)" fill="#403580"/>
</svg>
